<svg width="20" height="27" viewBox="0 0 20 27" fill="none" xmlns="http://www.w3.org/2000/svg">
<path d="M19.0005 0.25H14.0005C13.8016 0.25 13.6108 0.329018 13.4701 0.46967C13.3295 0.610322 13.2505 0.801088 13.2505 1C13.2505 1.19891 13.3295 1.38968 13.4701 1.53033C13.6108 1.67098 13.8016 1.75 14.0005 1.75H17.1905L13.4405 5.4925C12.5583 4.61835 11.4791 3.969 10.2935 3.59913C9.10801 3.22925 7.85096 3.1497 6.62826 3.36716C5.40557 3.58463 4.25303 4.09274 3.26774 4.84871C2.28245 5.60467 1.49326 6.58635 0.966643 7.71105C0.440025 8.83575 0.191402 10.0705 0.241715 11.3114C0.292029 12.5523 0.639806 13.7629 1.25575 14.8412C1.8717 15.9196 2.73778 16.8342 3.78104 17.5079C4.8243 18.1816 6.01418 18.5947 7.25047 18.7125V21.25H4.00047C3.80156 21.25 3.6108 21.329 3.47014 21.4697C3.32949 21.6103 3.25047 21.8011 3.25047 22C3.25047 22.1989 3.32949 22.3897 3.47014 22.5303C3.6108 22.671 3.80156 22.75 4.00047 22.75H7.25047V26C7.25047 26.1989 7.32949 26.3897 7.47014 26.5303C7.6108 26.671 7.80156 26.75 8.00047 26.75C8.19939 26.75 8.39015 26.671 8.5308 26.5303C8.67146 26.3897 8.75047 26.1989 8.75047 26V22.75H12.0005C12.1994 22.75 12.3902 22.671 12.5308 22.5303C12.6715 22.3897 12.7505 22.1989 12.7505 22C12.7505 21.8011 12.6715 21.6103 12.5308 21.4697C12.3902 21.329 12.1994 21.25 12.0005 21.25H8.75047V18.7125C10.0879 18.5817 11.3683 18.1053 12.4661 17.3302C13.5638 16.5551 14.4412 15.5079 15.012 14.2914C15.5828 13.0749 15.8275 11.7308 15.7221 10.3911C15.6166 9.05146 15.1646 7.76224 14.4105 6.65L18.2505 2.81V6C18.2505 6.19891 18.3295 6.38968 18.4701 6.53033C18.6108 6.67098 18.8016 6.75 19.0005 6.75C19.1994 6.75 19.3902 6.67098 19.5308 6.53033C19.6715 6.38968 19.7505 6.19891 19.7505 6V1C19.7505 0.801088 19.6715 0.610322 19.5308 0.46967C19.3902 0.329018 19.1994 0.25 19.0005 0.25ZM8.00047 17.25C6.76434 17.25 5.55597 16.8834 4.52816 16.1967C3.50035 15.5099 2.69927 14.5338 2.22623 13.3918C1.75318 12.2497 1.62941 10.9931 1.87057 9.78069C2.11172 8.5683 2.70698 7.45466 3.58106 6.58058C4.45513 5.7065 5.56878 5.11125 6.78116 4.87009C7.99354 4.62893 9.25021 4.75271 10.3922 5.22575C11.5343 5.6988 12.5104 6.49988 13.1972 7.52769C13.8839 8.55549 14.2505 9.76387 14.2505 11C14.2485 12.657 13.5894 14.2456 12.4177 15.4172C11.246 16.5889 9.65747 17.248 8.00047 17.25Z" fill="#F24E1E"/>
</svg>
