<svg width="26" height="25" viewBox="0 0 26 25" fill="none" xmlns="http://www.w3.org/2000/svg">
<path d="M25.043 10.25H23.7642C23.5658 7.54221 22.3501 5.00978 20.3613 3.16142C18.3725 1.31307 15.758 0.285706 13.043 0.285706C10.3279 0.285706 7.71339 1.31307 5.72462 3.16142C3.73586 5.00978 2.52015 7.54221 2.32172 10.25H1.04297C0.844056 10.25 0.653291 10.329 0.512639 10.4697C0.371986 10.6103 0.292969 10.8011 0.292969 11C0.297429 13.3581 0.953532 15.6691 2.18882 17.6778C3.42411 19.6865 5.19052 21.3146 7.29297 22.3825V23C7.29297 23.4642 7.47734 23.9093 7.80553 24.2375C8.13372 24.5656 8.57884 24.75 9.04297 24.75H17.043C17.5071 24.75 17.9522 24.5656 18.2804 24.2375C18.6086 23.9093 18.793 23.4642 18.793 23V22.3825C20.8954 21.3146 22.6618 19.6865 23.8971 17.6778C25.1324 15.6691 25.7885 13.3581 25.793 11C25.793 10.8011 25.714 10.6103 25.5733 10.4697C25.4326 10.329 25.2419 10.25 25.043 10.25ZM18.823 3.78627C19.1859 4.07694 19.5264 4.3945 19.8417 4.73627C18.4495 5.1696 17.1602 5.88197 16.0523 6.82993C14.9445 7.77789 14.0413 8.94158 13.398 10.25H9.21047C9.80116 8.36874 10.9757 6.72452 12.5639 5.55578C14.152 4.38705 16.0711 3.75455 18.043 3.75002C18.303 3.75002 18.5642 3.76377 18.823 3.78627ZM20.8305 6.01752C21.6482 7.28918 22.1394 8.74301 22.2605 10.25H15.103C15.73 9.2006 16.5592 8.2861 17.5424 7.55955C18.5256 6.833 19.6432 6.30886 20.8305 6.01752ZM13.043 1.75002C14.1888 1.74815 15.3249 1.96011 16.393 2.37502C14.3299 2.70069 12.4057 3.61811 10.8538 5.01599C9.30198 6.41386 8.18918 8.23208 7.65047 10.25H3.82547C4.01635 7.93556 5.06981 5.77729 6.77703 4.20295C8.48426 2.62862 10.7207 1.75313 13.043 1.75002ZM17.7305 21.23C17.5998 21.2899 17.4891 21.3861 17.4116 21.5071C17.334 21.6281 17.2928 21.7688 17.293 21.9125V23C17.293 23.0663 17.2666 23.1299 17.2197 23.1768C17.1729 23.2237 17.1093 23.25 17.043 23.25H9.04297C8.97666 23.25 8.91308 23.2237 8.86619 23.1768C8.81931 23.1299 8.79297 23.0663 8.79297 23V21.9125C8.7931 21.7688 8.75194 21.6281 8.67438 21.5071C8.59682 21.3861 8.48612 21.2899 8.35547 21.23C6.51562 20.3816 4.9379 19.0538 3.78769 17.3858C2.63748 15.7179 1.95713 13.7713 1.81797 11.75H24.268C24.1288 13.7713 23.4485 15.7179 22.2982 17.3858C21.148 19.0538 19.5703 20.3816 17.7305 21.23Z" fill="#F21E84"/>
</svg>
