<svg width="32" height="20" viewBox="0 0 32 20" fill="none" xmlns="http://www.w3.org/2000/svg">
<path d="M31.043 9.25H29.793V5C29.793 4.53587 29.6086 4.09075 29.2804 3.76256C28.9522 3.43437 28.5071 3.25 28.043 3.25H25.793V2C25.793 1.53587 25.6086 1.09075 25.2804 0.762563C24.9522 0.434375 24.5071 0.25 24.043 0.25H21.043C20.5788 0.25 20.1337 0.434375 19.8055 0.762563C19.4773 1.09075 19.293 1.53587 19.293 2V9.25H12.793V2C12.793 1.53587 12.6086 1.09075 12.2804 0.762563C11.9522 0.434375 11.5071 0.25 11.043 0.25H8.04297C7.57884 0.25 7.13372 0.434375 6.80553 0.762563C6.47734 1.09075 6.29297 1.53587 6.29297 2V3.25H4.04297C3.57884 3.25 3.13372 3.43437 2.80553 3.76256C2.47734 4.09075 2.29297 4.53587 2.29297 5V9.25H1.04297C0.844056 9.25 0.653291 9.32902 0.512639 9.46967C0.371986 9.61032 0.292969 9.80109 0.292969 10C0.292969 10.1989 0.371986 10.3897 0.512639 10.5303C0.653291 10.671 0.844056 10.75 1.04297 10.75H2.29297V15C2.29297 15.4641 2.47734 15.9092 2.80553 16.2374C3.13372 16.5656 3.57884 16.75 4.04297 16.75H6.29297V18C6.29297 18.4641 6.47734 18.9092 6.80553 19.2374C7.13372 19.5656 7.57884 19.75 8.04297 19.75H11.043C11.5071 19.75 11.9522 19.5656 12.2804 19.2374C12.6086 18.9092 12.793 18.4641 12.793 18V10.75H19.293V18C19.293 18.4641 19.4773 18.9092 19.8055 19.2374C20.1337 19.5656 20.5788 19.75 21.043 19.75H24.043C24.5071 19.75 24.9522 19.5656 25.2804 19.2374C25.6086 18.9092 25.793 18.4641 25.793 18V16.75H28.043C28.5071 16.75 28.9522 16.5656 29.2804 16.2374C29.6086 15.9092 29.793 15.4641 29.793 15V10.75H31.043C31.2419 10.75 31.4326 10.671 31.5733 10.5303C31.714 10.3897 31.793 10.1989 31.793 10C31.793 9.80109 31.714 9.61032 31.5733 9.46967C31.4326 9.32902 31.2419 9.25 31.043 9.25ZM4.04297 15.25C3.97666 15.25 3.91308 15.2237 3.86619 15.1768C3.81931 15.1299 3.79297 15.0663 3.79297 15V5C3.79297 4.9337 3.81931 4.87011 3.86619 4.82322C3.91308 4.77634 3.97666 4.75 4.04297 4.75H6.29297V15.25H4.04297ZM11.293 18C11.293 18.0663 11.2666 18.1299 11.2197 18.1768C11.1729 18.2237 11.1093 18.25 11.043 18.25H8.04297C7.97666 18.25 7.91308 18.2237 7.86619 18.1768C7.81931 18.1299 7.79297 18.0663 7.79297 18V2C7.79297 1.9337 7.81931 1.87011 7.86619 1.82322C7.91308 1.77634 7.97666 1.75 8.04297 1.75H11.043C11.1093 1.75 11.1729 1.77634 11.2197 1.82322C11.2666 1.87011 11.293 1.9337 11.293 2V18ZM24.293 18C24.293 18.0663 24.2666 18.1299 24.2197 18.1768C24.1729 18.2237 24.1093 18.25 24.043 18.25H21.043C20.9767 18.25 20.9131 18.2237 20.8662 18.1768C20.8193 18.1299 20.793 18.0663 20.793 18V2C20.793 1.9337 20.8193 1.87011 20.8662 1.82322C20.9131 1.77634 20.9767 1.75 21.043 1.75H24.043C24.1093 1.75 24.1729 1.77634 24.2197 1.82322C24.2666 1.87011 24.293 1.9337 24.293 2V18ZM28.293 15C28.293 15.0663 28.2666 15.1299 28.2197 15.1768C28.1729 15.2237 28.1093 15.25 28.043 15.25H25.793V4.75H28.043C28.1093 4.75 28.1729 4.77634 28.2197 4.82322C28.2666 4.87011 28.293 4.9337 28.293 5V15Z" fill="#F69134"/>
</svg>
