<svg width="26" height="25" viewBox="0 0 26 25" fill="none" xmlns="http://www.w3.org/2000/svg">
<path d="M25.7934 9C25.7934 9.19891 25.7144 9.38968 25.5737 9.53033C25.4331 9.67098 25.2423 9.75 25.0434 9.75H22.7934V12C22.7934 12.1989 22.7144 12.3897 22.5737 12.5303C22.4331 12.671 22.2423 12.75 22.0434 12.75C21.8445 12.75 21.6537 12.671 21.5131 12.5303C21.3724 12.3897 21.2934 12.1989 21.2934 12V9.75H19.0434C18.8445 9.75 18.6537 9.67098 18.5131 9.53033C18.3724 9.38968 18.2934 9.19891 18.2934 9C18.2934 8.80109 18.3724 8.61032 18.5131 8.46967C18.6537 8.32902 18.8445 8.25 19.0434 8.25H21.2934V6C21.2934 5.80109 21.3724 5.61032 21.5131 5.46967C21.6537 5.32902 21.8445 5.25 22.0434 5.25C22.2423 5.25 22.4331 5.32902 22.5737 5.46967C22.7144 5.61032 22.7934 5.80109 22.7934 6V8.25H25.0434C25.2423 8.25 25.4331 8.32902 25.5737 8.46967C25.7144 8.61032 25.7934 8.80109 25.7934 9ZM14.0434 3.75H15.2934V5C15.2934 5.19891 15.3724 5.38968 15.5131 5.53033C15.6537 5.67098 15.8445 5.75 16.0434 5.75C16.2423 5.75 16.4331 5.67098 16.5737 5.53033C16.7144 5.38968 16.7934 5.19891 16.7934 5V3.75H18.0434C18.2423 3.75 18.4331 3.67098 18.5737 3.53033C18.7144 3.38968 18.7934 3.19891 18.7934 3C18.7934 2.80109 18.7144 2.61032 18.5737 2.46967C18.4331 2.32902 18.2423 2.25 18.0434 2.25H16.7934V1C16.7934 0.801088 16.7144 0.610322 16.5737 0.46967C16.4331 0.329018 16.2423 0.25 16.0434 0.25C15.8445 0.25 15.6537 0.329018 15.5131 0.46967C15.3724 0.610322 15.2934 0.801088 15.2934 1V2.25H14.0434C13.8445 2.25 13.6537 2.32902 13.5131 2.46967C13.3724 2.61032 13.2934 2.80109 13.2934 3C13.2934 3.19891 13.3724 3.38968 13.5131 3.53033C13.6537 3.67098 13.8445 3.75 14.0434 3.75ZM22.9497 16.285C23.0369 16.3867 23.0953 16.5099 23.1189 16.6418C23.1424 16.7736 23.1301 16.9094 23.0834 17.035C22.4047 18.8886 21.27 20.5413 19.7839 21.8406C18.2979 23.1399 16.5085 24.0439 14.5809 24.4691C12.6534 24.8943 10.6497 24.827 8.75496 24.2735C6.86023 23.72 5.13547 22.6981 3.73992 21.3021C2.34437 19.9061 1.32301 18.181 0.770126 16.286C0.21724 14.3911 0.150651 12.3875 0.576507 10.46C1.00236 8.53256 1.90694 6.74346 3.20672 5.25787C4.5065 3.77228 6.1596 2.63809 8.01341 1.96C8.13823 1.91458 8.27288 1.90313 8.40358 1.92681C8.53428 1.9505 8.65635 2.00847 8.7573 2.0948C8.85825 2.18112 8.93446 2.29272 8.97814 2.41816C9.02182 2.5436 9.03141 2.67839 9.00591 2.80875C8.68449 4.44001 8.72819 6.1222 9.13386 7.73457C9.53954 9.34695 10.2971 10.8495 11.3523 12.1344C12.4074 13.4194 13.7339 14.4548 15.2366 15.1663C16.7392 15.8779 18.3808 16.248 20.0434 16.25C20.779 16.2503 21.5128 16.1791 22.2347 16.0375C22.3651 16.0117 22.5 16.021 22.6257 16.0645C22.7513 16.108 22.8631 16.1841 22.9497 16.285ZM21.1534 17.7025C20.7851 17.7342 20.4151 17.75 20.0434 17.75C16.6631 17.746 13.4224 16.4015 11.0322 14.0112C8.64196 11.621 7.29738 8.38029 7.29341 5C7.29341 4.62917 7.30924 4.25917 7.34091 3.89C5.90859 4.63052 4.67117 5.69851 3.72921 7.00719C2.78725 8.31587 2.16732 9.82831 1.9198 11.4216C1.67227 13.0149 1.80414 14.6442 2.30468 16.177C2.80521 17.7097 3.6603 19.1028 4.80046 20.2429C5.94062 21.3831 7.33368 22.2382 8.86646 22.7387C10.3992 23.2393 12.0285 23.3711 13.6218 23.1236C15.2151 22.8761 16.7275 22.2562 18.0362 21.3142C19.3449 20.3722 20.4129 19.1348 21.1534 17.7025Z" fill="#22C1C1"/>
</svg>
