<svg width="24" height="29" viewBox="0 0 24 29" fill="none" xmlns="http://www.w3.org/2000/svg">
<path d="M12.0003 7.75C12.742 7.75 13.467 7.53007 14.0837 7.11801C14.7003 6.70596 15.181 6.12029 15.4648 5.43506C15.7487 4.74984 15.8229 3.99584 15.6782 3.26841C15.5335 2.54098 15.1764 1.8728 14.6519 1.34835C14.1275 0.823904 13.4593 0.466751 12.7319 0.322057C12.0044 0.177362 11.2504 0.251625 10.5652 0.535453C9.87999 0.819282 9.29432 1.29993 8.88226 1.91661C8.47021 2.5333 8.25028 3.25832 8.25028 4C8.25028 4.99456 8.64536 5.94839 9.34863 6.65165C10.0519 7.35491 11.0057 7.75 12.0003 7.75ZM12.0003 1.75C12.4453 1.75 12.8803 1.88196 13.2503 2.12919C13.6203 2.37643 13.9087 2.72783 14.079 3.13896C14.2493 3.5501 14.2939 4.0025 14.207 4.43895C14.1202 4.87541 13.9059 5.27632 13.5913 5.59099C13.2766 5.90566 12.8757 6.11995 12.4392 6.20677C12.0028 6.29359 11.5504 6.24903 11.1392 6.07873C10.7281 5.90843 10.3767 5.62004 10.1295 5.25003C9.88224 4.88002 9.75028 4.44501 9.75028 4C9.75028 3.40326 9.98733 2.83097 10.4093 2.40901C10.8312 1.98705 11.4035 1.75 12.0003 1.75ZM23.1103 15.9275L17.459 9.52C17.1072 9.12091 16.6744 8.80126 16.1895 8.58229C15.7046 8.36332 15.1786 8.25005 14.6465 8.25H9.35403C8.82206 8.24989 8.29615 8.36297 7.81124 8.58172C7.32633 8.80047 6.89351 9.11988 6.54153 9.51875L0.890275 15.9275C0.680324 16.1355 0.513395 16.3828 0.399016 16.6553C0.284638 16.9278 0.225051 17.2201 0.223658 17.5156C0.220845 18.1125 0.455239 18.686 0.875275 19.11C1.29531 19.534 1.86658 19.7738 2.46342 19.7766C3.06025 19.7794 3.63376 19.545 4.05778 19.125L6.69653 17.0088L4.43028 25.615C4.19203 26.1564 4.17656 26.7698 4.38722 27.3226C4.59788 27.8753 5.01771 28.3228 5.55586 28.5683C6.09401 28.8138 6.70719 28.8375 7.26269 28.6343C7.81819 28.4311 8.27132 28.0173 8.52403 27.4825L12.0003 21.5L15.4765 27.4888C15.7292 28.0236 16.1824 28.4373 16.7379 28.6406C17.2934 28.8438 17.9065 28.8201 18.4447 28.5746C18.9828 28.3291 19.4027 27.8815 19.6133 27.3288C19.824 26.7761 19.8085 26.1627 19.5703 25.6213L17.304 17.0125L19.9428 19.125C20.3693 19.5305 20.9378 19.7527 21.5263 19.744C22.1148 19.7353 22.6765 19.4963 23.0908 19.0784C23.5052 18.6604 23.7393 18.0967 23.7429 17.5081C23.7466 16.9196 23.5195 16.3531 23.1103 15.93V15.9275ZM22.0315 18.03C21.9619 18.0997 21.8792 18.1551 21.7881 18.1928C21.6971 18.2305 21.5995 18.25 21.5009 18.25C21.4023 18.25 21.3047 18.2305 21.2137 18.1928C21.1226 18.1551 21.0399 18.0997 20.9703 18.03C20.9513 18.0101 20.9309 17.9917 20.909 17.975L16.4703 14.415C16.3472 14.3162 16.1962 14.2588 16.0387 14.2508C15.8811 14.2429 15.725 14.2848 15.5927 14.3706C15.4603 14.4565 15.3584 14.5818 15.3014 14.729C15.2444 14.8761 15.2353 15.0374 15.2753 15.19L18.134 26.0563C18.1465 26.0989 18.162 26.1407 18.1803 26.1813C18.2643 26.3616 18.2733 26.5679 18.2052 26.7549C18.1371 26.9418 17.9975 27.0941 17.8172 27.1781C17.6368 27.2622 17.4305 27.2711 17.2435 27.203C17.0566 27.1349 16.9043 26.9953 16.8203 26.815C16.8111 26.7944 16.8007 26.7743 16.789 26.755L12.649 19.625C12.5831 19.5113 12.4885 19.417 12.3746 19.3514C12.2608 19.2858 12.1317 19.2513 12.0003 19.2513C11.8689 19.2513 11.7398 19.2858 11.6259 19.3514C11.5121 19.417 11.4175 19.5113 11.3515 19.625L7.21153 26.7563C7.19988 26.7756 7.18944 26.7956 7.18028 26.8163C7.09623 26.9966 6.94399 27.1362 6.75704 27.2043C6.57009 27.2724 6.36375 27.2634 6.1834 27.1794C6.00305 27.0953 5.86348 26.9431 5.79538 26.7561C5.72728 26.5692 5.73623 26.3629 5.82027 26.1825C5.83858 26.142 5.85403 26.1002 5.86653 26.0575L8.72528 15.1913C8.76466 15.0392 8.75533 14.8786 8.69859 14.7322C8.64185 14.5858 8.54057 14.4608 8.40903 14.375C8.28757 14.295 8.14569 14.2516 8.00028 14.25C7.82939 14.2499 7.66357 14.3081 7.53027 14.415L3.09153 17.975C3.06968 17.9917 3.0492 18.0101 3.03028 18.03C2.88954 18.1707 2.69867 18.2498 2.49965 18.2498C2.30063 18.2498 2.10976 18.1707 1.96903 18.03C1.82829 17.8893 1.74923 17.6984 1.74923 17.4994C1.74923 17.3004 1.82829 17.1095 1.96903 16.9688L2.00153 16.935L7.66653 10.5113C7.87772 10.2719 8.13741 10.0803 8.42836 9.94903C8.7193 9.81778 9.03485 9.74994 9.35403 9.75H14.6465C14.9657 9.74994 15.2812 9.81778 15.5722 9.94903C15.8631 10.0803 16.1228 10.2719 16.334 10.5113L22.0003 16.935L22.0328 16.9688C22.1024 17.0385 22.1576 17.1213 22.1953 17.2124C22.2329 17.3035 22.2522 17.4011 22.2521 17.4996C22.252 17.5982 22.2325 17.6958 22.1946 17.7868C22.1568 17.8778 22.1013 17.9604 22.0315 18.03Z" fill="#F21E84"/>
</svg>
